<svg width="17" height="20" viewBox="0 0 17 20" fill="none" xmlns="http://www.w3.org/2000/svg">
<path d="M10.905 7.86625C10.905 7.86625 11.8375 2.38125 8.03252 0C7.91787 1.90607 6.99685 3.6731 5.50002 4.85875C3.87502 6.2875 0.81877 9.5 0.85127 12.925C0.827455 15.9116 2.49916 18.6534 5.16502 20C5.25934 18.6645 5.8874 17.4233 6.90752 16.5562C7.7719 15.8915 8.33307 14.9074 8.46502 13.825C10.7407 15.0348 12.2125 17.3521 12.34 19.9263V19.9425C14.8552 18.7904 16.511 16.3241 16.625 13.56C16.895 10.3425 15.1325 5.9675 13.5688 4.5375C12.9784 5.85556 12.0616 7.00126 10.905 7.86625Z" fill="#FF0000"/>
</svg>
