<svg width="18" height="20" viewBox="0 0 18 20" fill="none" xmlns="http://www.w3.org/2000/svg">
<path d="M16.6575 15.1C16.225 16.0575 16.0187 16.485 15.4612 17.3313C14.685 18.5125 13.5912 19.985 12.235 19.9975C11.03 20.0088 10.72 19.2138 9.08499 19.2225C7.44999 19.2313 7.10749 20.0113 5.90249 20C4.54624 19.9875 3.50999 18.6588 2.73249 17.4763C0.562489 14.1713 0.334989 10.2938 1.67374 8.2325C2.62499 6.76625 4.12624 5.91 5.53874 5.91C6.97624 5.91 7.87874 6.6975 9.06749 6.6975C10.22 6.6975 10.9225 5.90875 12.585 5.90875C13.8412 5.90875 15.1725 6.5925 16.12 7.77375C13.0137 9.4775 13.5187 13.9138 16.6575 15.1Z" fill="#FDCC0C"/>
<path d="M1.84282 15.1C2.27532 16.0575 2.48157 16.485 3.03907 17.3313C3.81532 18.5125 4.90907 19.985 6.26532 19.9975C7.47032 20.0088 7.78032 19.2138 9.41532 19.2225C11.0503 19.2313 11.3928 20.0113 12.5978 20C13.9541 19.9875 14.9903 18.6588 15.7678 17.4763C17.9378 14.1713 18.1653 10.2938 16.8266 8.2325C15.8753 6.76625 14.3741 5.91 12.9616 5.91C11.5241 5.91 10.6216 6.6975 9.43282 6.6975C8.28032 6.6975 7.57782 5.90875 5.91532 5.90875C4.65907 5.90875 3.32782 6.5925 2.38032 7.77375C5.48657 9.4775 4.98157 13.9138 1.84282 15.1Z" fill="#FDCC0C"/>
<path d="M12.005 3.37375C12.6875 2.49875 13.205 1.2625 13.0163 0C11.9025 0.07625 10.6 0.785 9.83876 1.70875C9.14876 2.5475 8.57876 3.79125 8.80001 5C10.0163 5.0375 11.2738 4.31125 12.005 3.37375Z" fill="#FDCC0C"/>
</svg>
